<?xml version="1.0" standalone="no"?>
<!DOCTYPE svg PUBLIC "-//W3C//DTD SVG 20010904//EN"
 "http://www.w3.org/TR/2001/REC-SVG-20010904/DTD/svg10.dtd">
<svg version="1.0" xmlns="http://www.w3.org/2000/svg"
 width="387.000000pt" height="387.000000pt" viewBox="0 0 387.000000 387.000000"
 preserveAspectRatio="xMidYMid meet">
<metadata>
Created by potrace 1.14, written by Peter Selinger 2001-2017
</metadata>
<g transform="translate(0.000000,387.000000) scale(0.100000,-0.100000)"
fill="#000000" stroke="none">
<path d="M715 3704 c-14 -15 -22 -30 -19 -35 3 -5 -3 -9 -13 -9 -15 0 -16 -2
-3 -10 12 -8 12 -10 -3 -16 -9 -3 -15 -10 -12 -15 3 -4 1 -16 -4 -26 -15 -30
-45 -98 -46 -105 0 -3 -3 -9 -7 -13 -4 -4 -4 -13 -1 -21 3 -8 1 -14 -4 -14 -5
0 -10 -12 -11 -27 -2 -41 -9 -80 -17 -92 -3 -6 0 -11 7 -11 8 0 9 -3 3 -8 -16
-11 -17 -34 -3 -43 7 -5 8 -9 3 -9 -6 0 -12 -11 -13 -26 -1 -18 2 -23 11 -18
9 6 9 5 0 -7 -10 -12 -10 -18 0 -29 9 -10 9 -11 0 -6 -16 9 -18 -30 -3 -39 6
-3 10 -12 10 -18 0 -7 -4 -6 -10 3 -8 11 -10 7 -8 -17 1 -18 5 -33 9 -33 3 0
7 -21 7 -46 1 -27 8 -54 17 -64 8 -9 12 -19 9 -23 -4 -3 -3 -14 1 -24 12 -26
16 -46 16 -65 0 -10 5 -21 11 -24 6 -4 8 -2 4 4 -3 6 -2 13 4 17 5 3 10 11 10
16 0 6 -5 7 -12 3 -6 -4 -8 -3 -4 4 3 5 0 13 -6 15 -8 3 -6 6 5 6 9 1 17 -4
17 -10 0 -5 5 -7 10 -4 6 4 10 3 9 -2 -4 -20 2 -27 12 -13 9 13 10 13 6 0 -2
-8 -12 -14 -22 -12 -9 2 -14 -1 -11 -7 4 -5 1 -13 -5 -16 -5 -4 -8 -13 -5 -21
3 -8 0 -14 -6 -14 -7 0 -7 -4 1 -14 9 -11 8 -15 -5 -20 -13 -5 -15 -9 -6 -18
16 -16 15 -28 -3 -28 -9 0 -18 -12 -21 -30 -4 -16 -10 -27 -15 -24 -5 3 -9 -4
-9 -15 0 -12 -3 -21 -7 -21 -16 0 -31 -48 -19 -61 8 -9 7 -10 -4 -4 -12 7 -13
6 -2 -7 10 -12 8 -20 -10 -44 -13 -16 -16 -25 -8 -20 8 4 4 -2 -10 -14 -14
-12 -18 -19 -10 -15 12 5 12 4 -1 -7 -9 -7 -14 -19 -12 -25 3 -7 0 -13 -6 -13
-6 0 -11 -7 -11 -15 0 -8 -4 -15 -10 -15 -5 0 -9 -3 -9 -7 1 -5 0 -10 -1 -13
-1 -3 -3 -14 -5 -25 -2 -11 -9 -21 -14 -23 -6 -2 -11 -9 -11 -17 0 -7 -7 -18
-15 -25 -13 -11 -13 -15 -3 -21 11 -7 11 -9 0 -9 -7 0 -10 -4 -7 -10 3 -5 2
-10 -4 -10 -5 0 -8 -8 -7 -17 2 -10 0 -25 -5 -33 -4 -8 -14 -31 -23 -51 -9
-20 -23 -40 -31 -43 -9 -3 -13 -2 -10 4 3 6 -1 10 -10 10 -10 0 -13 5 -9 13 4
6 -3 3 -15 -7 -19 -17 -21 -17 -15 -3 5 13 2 16 -12 10 -10 -4 -15 -2 -11 4 3
5 0 10 -8 10 -7 0 -12 -8 -10 -19 2 -10 -2 -18 -10 -18 -9 0 -12 6 -9 18 4 13
3 14 -4 4 -5 -8 -13 -14 -18 -14 -5 0 -16 -4 -24 -9 -12 -7 -12 -8 -1 -9 16 0
5 -15 -11 -15 -6 0 -12 -7 -14 -17 -1 -9 -6 -24 -12 -34 -9 -16 -10 -15 -9 8
1 14 6 24 11 20 5 -3 6 0 2 7 -11 16 -37 -6 -34 -28 2 -11 -3 -15 -15 -13 -11
2 -26 -5 -34 -15 -8 -10 -12 -12 -8 -6 4 9 1 11 -10 7 -13 -5 -13 -9 -3 -22 8
-10 9 -13 1 -9 -6 4 -18 4 -27 1 -14 -5 -16 -104 -16 -975 l0 -969 1935 0
1935 0 0 1038 c0 570 -4 1042 -8 1047 -14 19 -81 22 -92 4 -6 -8 -9 -8 -15 0
-5 9 -11 9 -23 -1 -15 -11 -15 -11 -5 3 7 9 10 19 6 23 -4 4 -13 -4 -20 -16
-13 -21 -13 -21 -8 -2 5 18 1 21 -22 19 -40 -3 -43 -4 -43 -16 0 -6 5 -7 13
-2 19 12 37 12 37 1 0 -5 -6 -8 -12 -6 -7 3 -19 -2 -27 -9 -11 -12 -15 -12
-22 -1 -7 10 -9 10 -10 -2 -1 -8 -1 -19 0 -24 1 -5 -5 -3 -14 4 -13 11 -13 15
-3 22 10 7 10 9 -2 5 -8 -2 -14 -11 -12 -21 2 -9 -2 -16 -8 -16 -6 0 -8 5 -5
10 3 6 -1 10 -9 10 -9 0 -16 5 -16 11 0 5 5 7 10 4 6 -3 10 -1 10 4 0 6 -10
11 -22 11 -17 0 -20 3 -9 9 11 7 10 14 -7 38 -12 16 -23 41 -26 54 -7 40 -51
144 -66 159 -3 3 -11 17 -19 33 -8 15 -20 27 -28 27 -7 0 -12 3 -11 8 1 4 -4
18 -11 30 -7 13 -10 26 -7 29 3 4 1 12 -5 20 -8 8 -8 13 -1 13 12 0 11 18 -2
39 -6 9 -5 12 2 7 6 -3 9 1 8 11 -2 10 -9 18 -17 18 -8 1 -13 6 -12 13 2 6 -3
9 -11 6 -8 -3 -17 0 -21 5 -3 6 -11 9 -16 6 -5 -4 -9 -1 -9 4 0 6 -7 11 -15
11 -8 0 -15 5 -15 10 0 6 -9 10 -20 10 -11 0 -20 5 -20 10 0 6 -7 10 -16 10
-8 0 -12 5 -9 10 3 6 2 10 -4 10 -6 0 -8 8 -5 18 5 14 4 14 -4 2 -6 -8 -8 -18
-6 -22 3 -4 -2 -5 -11 -2 -9 4 -14 13 -11 21 3 8 1 11 -4 8 -9 -6 -14 8 -11
28 0 4 -4 7 -10 7 -6 0 -9 -7 -6 -15 4 -8 1 -17 -5 -21 -7 -4 -8 -3 -4 5 5 8
-1 10 -24 6 -26 -5 -31 -3 -27 9 3 8 -2 20 -10 28 -14 11 -16 11 -11 -3 3 -9
2 -22 -4 -30 -8 -11 -9 -10 -4 4 3 9 0 17 -6 17 -9 0 -9 3 0 12 16 16 15 33 0
20 -18 -15 -71 31 -55 47 8 8 8 11 0 11 -6 0 -16 -6 -23 -14 -9 -12 -7 -17 9
-28 12 -7 21 -16 21 -21 0 -4 -4 -6 -9 -3 -5 4 -12 1 -14 -4 -3 -6 -4 -5 -3 2
1 7 -3 19 -10 26 -7 7 -11 18 -8 25 2 7 -4 13 -16 14 -17 2 -18 -1 -10 -17 10
-19 -4 -39 -17 -26 -4 3 -1 6 6 6 9 0 9 5 1 20 -6 11 -16 17 -25 14 -10 -4
-13 0 -10 15 2 12 -1 21 -7 21 -7 0 -6 6 2 15 9 11 9 19 2 28 -9 10 -4 13 19
12 16 0 29 -4 29 -9 0 -5 9 -1 20 9 18 16 20 16 26 1 3 -9 10 -13 15 -10 5 3
6 10 3 16 -4 6 1 6 14 -1 27 -14 35 -14 26 1 -4 6 -3 8 4 4 5 -3 13 0 15 6 4
10 6 10 6 1 1 -7 6 -13 12 -13 5 0 8 4 5 9 -7 11 18 21 30 13 15 -11 14 -30
-2 -36 -12 -5 -14 -1 -9 17 l6 22 -13 -23 c-10 -15 -17 -19 -24 -12 -7 7 -10
1 -10 -19 0 -22 4 -28 15 -24 13 4 13 3 -1 -6 -21 -14 -18 -37 8 -56 16 -13
16 -14 2 -9 -10 3 -18 1 -18 -5 0 -6 6 -10 13 -9 6 2 11 -5 11 -14 -1 -10 1
-17 5 -16 19 2 22 -4 10 -19 -13 -17 -13 -17 5 -3 16 12 18 12 11 1 -5 -10 -4
-12 4 -7 6 4 9 12 6 17 -6 8 9 13 29 10 5 -1 -2 13 -17 32 -17 22 -22 38 -17
47 5 8 6 18 4 22 -3 4 0 8 7 8 8 0 8 4 -1 15 -7 8 -16 12 -21 9 -5 -3 -9 0 -9
6 0 7 7 9 15 6 8 -3 22 -9 31 -12 10 -5 14 -2 13 7 -4 19 23 79 36 79 5 0 3 5
-5 10 -12 7 -12 10 -1 10 7 0 11 6 8 13 -5 13 17 39 26 31 3 -3 4 6 3 20 -2
15 1 23 7 19 6 -4 8 2 5 15 -4 13 -1 22 5 22 7 0 5 5 -3 10 -14 9 -7 14 13 11
4 -1 2 8 -5 19 -17 26 -57 37 -69 19 -7 -12 -9 -12 -9 0 0 10 -3 11 -14 2 -8
-7 -25 -13 -38 -15 -13 -1 -29 -6 -36 -10 -7 -4 -20 -2 -29 6 -12 9 -15 9 -9
1 8 -14 7 -14 -44 -17 -19 -1 -41 -5 -47 -9 -7 -5 -13 -4 -13 2 0 10 -19 9
-37 -2 -8 -5 -13 -3 -13 3 0 6 -5 8 -12 3 -22 -13 -37 -12 -31 3 3 8 9 11 14
8 5 -3 9 0 9 5 0 6 9 11 20 11 11 0 20 5 20 11 0 5 5 7 10 4 6 -3 10 -1 10 4
0 6 6 11 14 11 8 0 24 12 35 26 12 15 21 23 21 19 0 -5 9 0 19 9 11 10 25 15
31 11 6 -3 10 -3 9 2 -3 19 2 34 10 28 5 -3 13 0 16 6 4 5 13 8 21 5 8 -3 11
0 8 9 -4 11 1 13 23 9 27 -5 27 -5 8 11 -11 8 -15 14 -10 13 18 -4 55 13 50
23 -4 5 -2 9 3 9 5 0 25 15 44 33 66 60 68 61 69 35 1 -13 1 -26 0 -30 0 -5 5
-8 13 -8 9 0 13 -9 11 -25 -1 -14 0 -23 3 -21 10 10 41 -36 37 -55 -2 -10 0
-19 5 -19 5 0 7 -12 5 -27 -2 -16 -4 -28 -5 -28 -1 0 -3 -9 -4 -20 -10 -83
-18 -115 -28 -109 -6 4 -8 -1 -4 -14 4 -11 2 -23 -3 -26 -6 -4 -7 -14 -4 -23
4 -11 3 -14 -5 -9 -8 5 -10 2 -6 -8 3 -9 11 -13 16 -10 7 5 -6 -30 -16 -42 -1
0 6 -9 14 -19 9 -11 10 -16 3 -11 -7 4 -13 2 -13 -3 0 -6 7 -11 15 -11 14 0
19 12 16 33 0 4 4 7 9 7 9 0 85 97 85 110 0 3 3 10 6 15 4 6 5 20 4 32 -1 12
3 21 8 20 14 -3 36 101 32 153 -4 52 -14 96 -28 130 -4 8 -8 24 -10 35 -1 11
-7 27 -12 35 -5 8 -10 21 -11 28 -2 8 -6 21 -10 30 -4 9 -8 24 -8 32 -2 25
-15 38 -34 35 -9 -2 -20 -4 -25 -4 -4 -1 -30 -24 -57 -51 -28 -28 -50 -48 -50
-45 0 3 -10 -3 -22 -15 -20 -18 -39 -25 -60 -21 -5 0 -8 -3 -8 -9 0 -5 -7 -10
-16 -10 -8 0 -12 -5 -8 -11 4 -7 -1 -7 -16 1 -18 10 -21 9 -15 -1 6 -9 3 -11
-9 -6 -9 4 -15 3 -12 -2 5 -7 -27 -22 -38 -18 -2 1 -12 -5 -22 -13 -21 -17
-42 -19 -63 -6 -10 7 -12 6 -6 -4 6 -10 4 -12 -8 -7 -12 4 -14 2 -10 -11 6
-14 4 -15 -8 -5 -9 7 -20 8 -29 3 -8 -5 -18 -6 -22 -4 -4 3 -8 0 -8 -5 0 -11
-6 -12 -87 -13 -23 -1 -40 -5 -37 -9 7 -13 -40 -11 -52 1 -8 8 -15 5 -25 -7
-13 -16 -12 -17 4 -4 9 7 17 9 17 3 0 -13 -30 -26 -54 -23 -13 2 -16 -1 -10
-11 6 -10 4 -10 -9 1 -15 12 -17 11 -18 -5 -1 -11 0 -23 1 -29 1 -5 -2 -6 -7
-2 -4 5 -8 12 -8 15 0 4 -3 12 -7 18 -4 6 -1 20 7 30 11 13 13 14 10 3 -9 -23
20 -19 35 5 10 17 10 19 -1 9 -10 -10 -16 -9 -31 4 -10 9 -18 13 -18 8 0 -4
-6 -2 -14 4 -10 8 -16 9 -21 1 -3 -5 -11 -10 -16 -10 -6 0 -8 4 -5 8 2 4 -4 9
-15 9 -11 1 -17 -3 -13 -8 3 -6 -3 -5 -15 3 -12 7 -21 16 -21 21 0 4 -4 5 -10
2 -5 -3 -10 -1 -10 4 0 6 -5 11 -11 11 -6 0 -7 -6 -2 -12 4 -7 -5 -5 -20 5
-15 10 -32 15 -37 12 -6 -3 -10 -1 -10 5 0 6 -4 8 -10 5 -5 -3 -10 -2 -10 4 0
6 -7 8 -15 5 -8 -4 -15 -2 -15 3 0 5 -8 9 -17 9 -10 1 -33 4 -51 8 -19 4 -39
8 -45 9 -7 1 -15 7 -19 12 -5 6 -8 5 -8 -3 0 -7 -5 -10 -10 -7 -11 6 -135 17
-197 17 -21 0 -31 4 -27 12 3 6 0 4 -8 -5 -9 -10 -27 -15 -55 -14 -24 1 -43
-3 -43 -7 0 -5 -20 -8 -44 -5 -33 3 -43 0 -39 -9 2 -7 -9 -20 -26 -29 -38 -19
-41 -11 -3 10 15 9 19 14 9 11 -10 -3 -22 -6 -27 -6 -5 0 -12 -9 -15 -21 -5
-16 -13 -20 -31 -16 -13 2 -21 1 -19 -4 6 -9 -34 -24 -54 -20 -8 1 -17 -2 -20
-7 -3 -6 -13 -12 -21 -14 -8 -2 -21 -11 -28 -20 -7 -10 -19 -18 -25 -18 -7 0
-6 4 3 10 8 5 11 10 5 10 -15 0 -37 -16 -36 -26 1 -5 -2 -9 -6 -9 -5 0 -14 -4
-22 -9 -10 -7 -10 -10 -1 -16 8 -5 10 -18 6 -36 -5 -19 -10 -24 -15 -15 -6 9
-10 8 -13 -6 -3 -11 -12 -20 -21 -20 -9 0 -14 4 -11 9 3 4 0 9 -5 9 -6 1 -15
2 -20 3 -6 0 -16 7 -23 15 -10 10 -10 12 0 7 14 -9 17 10 2 19 -6 4 -8 10 -5
15 3 5 1 11 -5 15 -6 4 -8 11 -5 16 4 5 1 9 -5 9 -7 0 -9 7 -6 15 3 9 -1 18
-9 21 -8 4 -13 10 -10 14 3 5 -1 15 -9 23 -8 8 -12 17 -9 21 4 3 -1 6 -10 6
-9 0 -17 4 -17 9 0 14 -48 19 -61 7 -9 -8 -10 -8 -5 2 4 6 4 12 -1 13 -32 3
-58 11 -61 19 -2 5 -10 6 -18 3 -8 -3 -14 1 -14 8 0 7 -3 10 -6 6 -4 -3 -13 1
-21 9 -9 8 -22 13 -30 10 -8 -3 -11 -1 -8 4 3 6 0 10 -8 10 -7 0 -23 9 -35 20
-12 11 -26 20 -32 20 -5 0 -10 5 -10 10 0 6 -4 10 -10 10 -5 0 -19 9 -31 21
-11 11 -26 18 -32 16 -13 -4 -37 16 -37 32 0 6 -4 11 -10 11 -5 0 -10 9 -10
19 0 31 -29 33 -55 5z m101 -201 c4 -13 11 -23 17 -23 6 0 8 -3 4 -6 -3 -3 8
-20 24 -36 16 -17 29 -36 29 -42 0 -6 9 -18 19 -26 11 -7 18 -17 15 -22 -3 -4
1 -8 9 -8 8 0 17 -7 21 -15 3 -8 12 -15 21 -15 8 0 14 -6 12 -12 -1 -7 4 -12
11 -10 7 1 15 -4 18 -12 3 -8 11 -13 19 -10 7 3 15 -2 18 -10 4 -9 13 -16 22
-16 9 0 25 -9 37 -20 l22 -20 -25 -1 c-69 -4 -139 2 -139 12 0 3 -6 6 -12 7
-18 1 -39 7 -69 20 -43 17 -64 9 -62 -24 3 -39 3 -121 0 -165 -2 -35 -10 -41
-34 -26 -6 4 -15 2 -19 -4 -4 -7 -3 -9 4 -5 6 3 13 2 17 -4 3 -5 1 -10 -5 -10
-7 0 -10 -6 -7 -12 2 -7 10 -12 16 -10 7 1 9 -2 5 -9 -4 -8 -3 -9 5 -5 9 6 9
11 0 22 -9 11 -8 14 5 14 9 0 17 -9 18 -20 0 -11 1 -25 2 -32 1 -6 -5 -12 -12
-14 -7 -1 -8 0 -2 3 18 8 11 23 -10 20 -23 -4 -39 -17 -20 -17 9 0 10 -3 1
-13 -6 -8 -7 -18 -3 -22 4 -5 2 -5 -5 -1 -7 4 -10 12 -7 20 3 7 -2 13 -11 13
-9 0 -14 -6 -10 -14 3 -7 8 -20 12 -30 4 -11 3 -14 -5 -9 -7 4 -12 14 -12 22
0 8 -2 14 -4 14 -2 0 -13 3 -23 6 -16 6 -16 5 2 -10 11 -10 15 -15 8 -11 -7 3
-17 -4 -23 -15 -9 -17 -14 -18 -32 -9 -21 11 -21 12 -3 25 17 13 14 19 -8 15
-5 -1 -6 3 -2 9 3 6 10 8 15 5 5 -3 13 3 19 12 6 10 11 13 11 6 0 -6 9 -11 19
-10 11 0 17 6 13 12 -3 5 3 3 13 -5 15 -12 17 -12 10 -1 -6 10 -4 12 6 6 11
-6 11 -5 2 5 -6 7 -9 19 -6 26 3 8 0 14 -7 14 -6 0 -9 -4 -6 -9 3 -5 -2 -15
-11 -22 -14 -12 -15 -11 -9 8 6 19 4 22 -20 20 -19 -1 -28 3 -30 16 -1 11 -5
22 -8 25 -4 3 -4 -5 -2 -19 2 -13 5 -28 5 -32 1 -4 8 -7 17 -5 10 2 19 -2 21
-9 4 -12 -15 -11 -51 3 -14 5 -17 4 -12 -4 4 -7 14 -12 22 -12 22 0 17 -16 -6
-17 -11 -1 -20 4 -20 13 0 8 -6 14 -12 14 -9 0 -9 3 1 9 8 5 16 17 17 25 1 9
-2 14 -7 10 -5 -3 -6 -11 -3 -17 5 -8 3 -8 -7 1 -10 9 -10 15 -1 24 18 18 15
31 -5 24 -16 -5 -16 -4 -3 7 19 16 24 37 8 37 -9 0 -8 4 2 10 8 5 11 10 5 10
-5 0 -3 5 5 10 12 8 12 10 -5 10 -14 0 -16 3 -7 8 11 7 22 81 24 160 0 12 5
22 11 22 6 0 7 3 4 6 -3 4 -2 16 4 27 8 15 8 18 -1 12 -9 -6 -9 -2 -1 14 7 11
9 21 6 21 -4 0 -3 6 2 13 4 6 8 14 8 17 5 35 44 120 55 120 6 0 9 3 9 8 -4 23
4 22 26 -4 14 -16 28 -39 31 -51z m1724 -193 c0 -5 -2 -10 -4 -10 -3 0 -8 5
-11 10 -3 6 -1 10 4 10 6 0 11 -4 11 -10z m-1072 -15 c-2 -1 -14 -8 -28 -14
-22 -11 -23 -10 -8 2 10 8 15 17 11 21 -4 4 1 4 10 0 10 -3 17 -8 15 -9z
m1372 -386 c0 -5 -4 -9 -8 -9 -5 0 -9 7 -9 15 0 8 4 12 9 9 4 -3 8 -9 8 -15z
m224 -6 c3 -8 10 -12 15 -8 6 3 9 -4 8 -15 -1 -11 -4 -20 -8 -20 -11 0 -5 -25
13 -53 15 -21 15 -26 3 -31 -12 -4 -44 31 -37 42 7 10 -1 22 -15 22 -15 0 -14
2 3 15 19 15 19 15 -1 9 -15 -4 -14 -1 5 10 l25 16 -22 6 c-26 7 -31 21 -8 21
8 0 17 -7 19 -14z m-2315 -26 c8 -10 7 -14 -4 -14 -8 0 -12 4 -9 8 2 4 -2 10
-8 12 -8 4 -9 6 -2 6 6 1 17 -5 23 -12z m52 -20 c-10 -9 -11 -8 -5 6 3 10 9
15 12 12 3 -3 0 -11 -7 -18z m-88 -32 c-10 -8 -21 -15 -25 -15 -5 0 -8 -5 -8
-11 0 -5 6 -7 13 -3 7 5 7 1 -3 -12 -8 -10 -15 -20 -16 -22 -1 -2 -1 8 -1 22
0 16 9 31 23 41 15 10 21 21 18 33 -5 15 -4 15 6 -1 10 -15 8 -21 -7 -32z m12
-25 c3 -5 1 -10 -4 -10 -6 0 -11 5 -11 10 0 6 2 10 4 10 3 0 8 -4 11 -10z m59
-9 c-8 -8 -34 -10 -38 -2 -3 4 6 7 19 7 14 0 22 -2 19 -5z m2142 -14 c1 -7 -7
-13 -18 -13 -17 0 -17 2 -4 12 9 6 14 14 11 17 -3 4 -2 5 2 2 4 -3 8 -11 9
-18z m-2181 -8 c4 -5 -2 -6 -11 -2 -13 5 -15 3 -9 -8 8 -12 6 -12 -8 0 -15 12
-17 11 -17 -3 0 -9 -5 -16 -10 -16 -7 0 -7 6 -1 18 10 19 47 27 56 11z m2240
1 c-3 -5 0 -10 7 -11 10 0 10 -2 0 -6 -6 -2 -10 -9 -7 -13 3 -5 1 -11 -3 -14
-5 -3 -8 7 -6 22 2 32 2 32 10 32 3 0 2 -4 -1 -10z m-2311 -39 c4 -5 -1 -8 -9
-7 -21 3 -31 16 -12 16 9 0 18 -4 21 -9z m56 5 c0 -3 -4 -8 -10 -11 -5 -3 -10
-1 -10 4 0 6 5 11 10 11 6 0 10 -2 10 -4z m-40 -30 c0 -2 -7 -7 -16 -10 -8 -3
-12 -2 -9 4 6 10 25 14 25 6z m2430 -11 c7 -8 9 -15 6 -15 -4 0 -14 7 -22 15
-9 8 -11 15 -6 15 5 0 15 -7 22 -15z m-2470 -9 c0 -2 -7 -7 -16 -10 -8 -3 -12
-2 -9 4 6 10 25 14 25 6z m-382 -621 c-3 -3 -9 2 -12 12 -6 14 -5 15 5 6 7 -7
10 -15 7 -18z m-61 -7 c-3 -8 -6 -5 -6 6 -1 11 2 17 5 13 3 -3 4 -12 1 -19z"/>
<path d="M732 3031 c-11 -7 -11 -9 0 -14 9 -3 15 1 15 9 0 8 -1 14 -1 14 -1 0
-7 -4 -14 -9z"/>
<path d="M699 2938 c-6 -19 -9 -61 -3 -56 7 8 15 58 8 58 -2 0 -4 -1 -5 -2z"/>
<path d="M2825 3410 c-3 -6 1 -7 9 -4 18 7 21 14 7 14 -6 0 -13 -4 -16 -10z"/>
<path d="M2916 2918 c-18 -26 -21 -42 -6 -33 6 4 17 1 25 -5 13 -10 14 -7 11
19 -5 43 -11 47 -30 19z"/>
<path d="M2864 2894 c0 -18 5 -35 12 -38 22 -8 28 16 9 31 -17 12 -17 13 -2
13 22 0 22 16 -1 22 -14 4 -17 -2 -18 -28z"/>
<path d="M2964 2919 c-3 -5 -2 -9 3 -9 4 0 2 -4 -6 -9 -9 -6 -10 -11 -2 -15 6
-4 11 -2 11 4 0 6 5 8 13 4 8 -5 8 -2 -2 9 -16 20 -5 23 14 3 11 -11 8 -16
-20 -29 -21 -10 -37 -12 -40 -7 -9 14 -25 12 -25 -3 0 -8 14 -13 40 -13 21 0
37 3 34 8 -3 4 3 5 12 1 16 -6 15 -8 -4 -16 -27 -12 -27 -19 -3 -41 19 -17 20
-17 30 3 6 11 7 22 3 25 -5 3 -8 24 -7 48 1 38 -2 43 -22 44 -13 1 -26 -2 -29
-7z m49 -85 c11 -11 -3 -24 -18 -18 -8 4 -12 10 -9 15 6 11 18 12 27 3z"/>
<path d="M3146 2912 c-3 -5 1 -9 9 -9 8 0 12 4 9 9 -3 4 -7 8 -9 8 -2 0 -6 -4
-9 -8z"/>
<path d="M3116 2872 c-3 -5 1 -9 9 -9 8 0 12 4 9 9 -3 4 -7 8 -9 8 -2 0 -6 -4
-9 -8z"/>
<path d="M3105 2830 c3 -5 8 -10 11 -10 2 0 4 5 4 10 0 6 -5 10 -11 10 -5 0
-7 -4 -4 -10z"/>
<path d="M3136 2788 c3 -5 10 -6 15 -3 13 9 11 12 -6 12 -8 0 -12 -4 -9 -9z"/>
<path d="M3750 2110 c0 -5 5 -10 11 -10 5 0 7 5 4 10 -3 6 -8 10 -11 10 -2 0
-4 -4 -4 -10z"/>
<path d="M336 2088 c3 -5 10 -6 15 -3 13 9 11 12 -6 12 -8 0 -12 -4 -9 -9z"/>
</g>
</svg>
